<svg xmlns="http://www.w3.org/2000/svg" viewBox="0 0 194.22 78.87"><defs><style>.cls-1{fill:#00ad00;}.cls-2{fill:none;}.cls-3{fill:#fff;}</style></defs><g id="Capa_2" data-name="Capa 2"><g id="Capa_1-2" data-name="Capa 1"><path class="cls-1" d="M66,67.78,75.66,66c.81,2.74,2.89,4.1,6.25,4.1q3.93,0,3.93-2.08a1.94,1.94,0,0,0-.91-1.71,9.94,9.94,0,0,0-3.24-1.08q-8.91-1.69-11.45-4.46a9.27,9.27,0,0,1-2.53-6.48,10.14,10.14,0,0,1,3.64-8Q75,43.17,81.81,43.17q10.36,0,13.69,8.32L86.88,54.1c-.89-2.27-2.71-3.4-5.44-3.4-2.27,0-3.4.7-3.4,2.11a1.67,1.67,0,0,0,.77,1.46,9.48,9.48,0,0,0,3,1,61.59,61.59,0,0,1,8.64,2.27,9.29,9.29,0,0,1,4.27,3.39,9.41,9.41,0,0,1,1.72,5.65,10,10,0,0,1-4.17,8.34q-4.19,3.19-11,3.19Q68.9,78.11,66,67.78Z"/><path class="cls-1" d="M125.9,69.5v8.09H100.39V43.69H125.9v7.83H110.6v4.91H123V64H110.6V69.5Z"/><path class="cls-1" d="M159,77.59h-8.47l-9.28-15a56.8,56.8,0,0,1-3.61-7,23.44,23.44,0,0,1,.82,5.57V77.59H130V43.69h9.83l7.9,12.42a49.66,49.66,0,0,1,3.58,6.51,49.32,49.32,0,0,1-.8-8.89v-10H159Z"/><path class="cls-1" d="M183.6,77.59l-1.91-6.68H172.6l-2,6.68h-8.45l10.47-33.9h11l10.63,33.9Zm-9.22-14.08h5.48l-2.74-9.83Z"/><path class="cls-2" d="M55.49,39.42A16.42,16.42,0,0,0,54.94,7a9.56,9.56,0,0,1,.55,3.17Z"/><path class="cls-1" d="M46.91,73.21a7.83,7.83,0,0,1,0-1.37l2.35-25.65c-9.39-1.7-16.6-11.35-16.6-23,0-10.93,6.39-20.12,15-22.58A6.56,6.56,0,0,0,46.45.54H8.07C3.61.54,0,4.83,0,10.12V69c0,5.3,3.61,9.59,8.07,9.59H46.45a7,7,0,0,0,2.93-.66A6.56,6.56,0,0,1,46.91,73.21Z"/><rect class="cls-3" x="8.95" y="40.18" width="13.64" height="12.54" rx="2.85"/><rect class="cls-3" x="8.95" y="57.45" width="13.64" height="12.54" rx="2.85"/><rect class="cls-3" x="30.25" y="40.18" width="13.64" height="12.54" rx="2.85"/><rect class="cls-3" x="30.25" y="57.45" width="13.64" height="12.54" rx="2.85"/><path class="cls-3" d="M38.33,20.65A16.35,16.35,0,0,1,43,8.78H13.27c-2.42,0-4.38,2.49-4.38,5.55V27.17c0,3.07,2,5.55,4.38,5.55h30A16.26,16.26,0,0,1,38.33,20.65Z"/><path class="cls-3" d="M51.29,30.46V16.21a6.15,6.15,0,0,0-6.15-6.15H43a16.41,16.41,0,0,0,.3,26.56h1.89A6.15,6.15,0,0,0,51.29,30.46Z"/><path class="cls-1" d="M81.07,23.23a23.23,23.23,0,1,0-26.74,23l-2.8,25.65a7.83,7.83,0,0,0,0,1.37,6.34,6.34,0,1,0,12.61-1.37L61.35,46.19A23.27,23.27,0,0,0,81.07,23.23ZM60.57,39.42A16.42,16.42,0,1,1,57.84,6.8,17.64,17.64,0,0,1,60,7a16.42,16.42,0,0,1,.54,32.47Z"/><path class="cls-1" d="M96.37,11.43V34.84h-9V11.43H81V4.05h21.73v7.38Z"/><path class="cls-1" d="M125.9,11.9V34.84h-8.32V31.08c-1.22,2.82-3.6,4.24-7.13,4.24a6.82,6.82,0,0,1-5.07-1.82,7.1,7.1,0,0,1-1.79-5.2V11.9h9V26.34a3.62,3.62,0,0,0,.37,1.9,1.65,1.65,0,0,0,1.46.56,2.36,2.36,0,0,0,1.87-.83,3.4,3.4,0,0,0,.72-2.31V11.9Z"/></g></g></svg>