<?xml version="1.0" encoding="utf-8"?>
<!-- Generator: Adobe Illustrator 24.2.1, SVG Export Plug-In . SVG Version: 6.00 Build 0)  -->
<svg version="1.1" xmlns="http://www.w3.org/2000/svg" xmlns:xlink="http://www.w3.org/1999/xlink" x="0px" y="0px"
	 viewBox="0 0 64.54 29.01" style="enable-background:new 0 0 64.54 29.01;" xml:space="preserve">
<style type="text/css">
	.st0{fill:#EDEDED;}
	.st1{fill:#FFFFFF;}
	.st2{fill:#205072;}
	.st3{fill:#359D9E;}
	.st4{opacity:0.8;}
	.st5{fill:#55C595;}
	.st6{fill:#CDF5D0;}
	.st7{fill:none;stroke:#55C595;stroke-miterlimit:10;}
	.st8{fill:#CCCDCE;}
</style>
<g id="Capa_1">
	<g>
		<g>
			<g>
				<path class="st2" d="M17.17,26.8c-0.02-0.17-0.01-0.34,0-0.5l0.86-9.39c-2.18-0.39-4.04-1.97-5.11-4.15H4.02
					c-1.04,0-1.89-1.07-1.89-2.39V4.83c0-1.32,0.85-2.39,1.89-2.39h10.1c0.91-1.05,2.05-1.83,3.32-2.19C17.3,0.21,17.15,0.2,17,0.2
					H2.96C1.32,0.2,0,1.77,0,3.71v21.54c0,1.94,1.32,3.51,2.96,3.51H17c0.38,0,0.74-0.09,1.07-0.24
					C17.59,28.15,17.24,27.54,17.17,26.8z M8.48,25.3c0,0.91-0.74,1.66-1.66,1.66H4.27c-0.91,0-1.66-0.74-1.66-1.66v-2.08
					c0-0.91,0.74-1.66,1.66-1.66h2.55c0.91,0,1.66,0.74,1.66,1.66V25.3z M8.48,18.73c0,0.91-0.74,1.66-1.66,1.66H4.27
					c-0.91,0-1.66-0.74-1.66-1.66v-2.08c0-0.91,0.74-1.66,1.66-1.66h2.55c0.91,0,1.66,0.74,1.66,1.66V18.73z M15.49,25.3
					c0,0.91-0.74,1.66-1.66,1.66h-2.55c-0.91,0-1.66-0.74-1.66-1.66v-2.08c0-0.91,0.74-1.66,1.66-1.66h2.55
					c0.91,0,1.66,0.74,1.66,1.66V25.3z M15.49,18.73c0,0.91-0.74,1.66-1.66,1.66h-2.55c-0.91,0-1.66-0.74-1.66-1.66v-2.08
					c0-0.91,0.74-1.66,1.66-1.66h2.55c0.91,0,1.66,0.74,1.66,1.66V18.73z"/>
				<g>
					<g>
						<path class="st3" d="M29.68,8.5c0-4.69-3.81-8.5-8.5-8.5c-0.69,0-1.35,0.08-1.99,0.24c-1.51,0.36-2.86,1.14-3.94,2.19
							c-1.58,1.54-2.57,3.69-2.57,6.07c0,1.55,0.42,3.01,1.15,4.26c1.27,2.18,3.48,3.75,6.07,4.15l-1.02,9.39
							c-0.02,0.16-0.02,0.34,0,0.5c0.08,0.73,0.49,1.35,1.07,1.71c0.43,0.27,0.95,0.4,1.49,0.34c1.27-0.14,2.2-1.28,2.06-2.56
							l-1.02-9.39C26.54,16.29,29.68,12.76,29.68,8.5z M22.18,14.43c-0.33,0.05-0.66,0.08-1,0.08c-1.41,0-2.71-0.49-3.74-1.31
							c-0.18-0.14-0.35-0.29-0.5-0.44h0.03c-0.13-0.12-0.25-0.25-0.37-0.38c-0.89-1.05-1.43-2.4-1.43-3.88
							c0-1.87,0.86-3.55,2.21-4.65c0.78-0.64,1.72-1.08,2.75-1.26c0.04-0.01,0.08-0.01,0.12-0.02c0.3-0.05,0.61-0.08,0.93-0.08
							c0.27,0,0.54,0.02,0.8,0.05c2.94,0.39,5.21,2.91,5.21,5.96C27.19,11.48,25.02,13.95,22.18,14.43z"/>
					</g>
				</g>
			</g>
		</g>
		<g>
			<path class="st2" d="M34.07,2.26v10.98h-2.31V2.26h-4.15V0.21H38.4v2.06H34.07z"/>
			<path class="st2" d="M42.44,13.25v-0.8c-0.31,0.27-0.75,0.5-1.3,0.69c-0.55,0.19-1.06,0.28-1.52,0.28
				c-2.21,0-3.32-1.17-3.32-3.52V3.71h2.22v6.01c0,1.22,0.55,1.83,1.65,1.83c0.5,0,0.97-0.13,1.41-0.39
				c0.43-0.26,0.72-0.56,0.86-0.91V3.71h2.22v9.54H42.44z"/>
			<path class="st2" d="M25.21,28.07L26.07,26c0.91,0.64,1.81,0.96,2.7,0.96c1.36,0,2.04-0.47,2.04-1.42c0-0.44-0.16-0.87-0.48-1.27
				c-0.32-0.4-0.98-0.86-1.98-1.36c-1-0.5-1.67-0.91-2.02-1.24c-0.35-0.32-0.61-0.71-0.8-1.15c-0.19-0.44-0.28-0.94-0.28-1.48
				c0-1.01,0.37-1.84,1.11-2.51c0.74-0.66,1.69-1,2.84-1c1.51,0,2.61,0.28,3.32,0.85l-0.7,1.99c-0.81-0.58-1.67-0.87-2.57-0.87
				c-0.53,0-0.95,0.14-1.24,0.42c-0.29,0.28-0.44,0.65-0.44,1.1c0,0.75,0.83,1.52,2.48,2.33c0.87,0.43,1.5,0.82,1.89,1.18
				c0.39,0.36,0.68,0.78,0.88,1.25c0.2,0.48,0.3,1.01,0.3,1.6c0,1.06-0.42,1.92-1.25,2.61c-0.83,0.68-1.95,1.02-3.35,1.02
				C27.29,29.01,26.19,28.7,25.21,28.07z"/>
			<path class="st2" d="M36.37,17.81v3.05h4.31v1.97h-4.31v3.91h5.91v2.06h-8.22V15.76h8.32v2.06H36.37z"/>
			<path class="st2" d="M51.87,28.97l-6.33-8.25v8.08h-2.22V15.76h1.11l6.16,7.86v-7.86h2.22v13.21H51.87z"/>
			<path class="st2" d="M61.99,28.79l-0.95-2.64h-4.47l-0.91,2.64h-2.57l5.2-13.21h1.01l5.24,13.21H61.99z M58.79,19.56l-1.57,4.81
				h3.13L58.79,19.56z"/>
		</g>
	</g>
</g>
<g id="Capa_2">
</g>
</svg>
